<svg width="16" height="20" viewBox="0 0 16 20" fill="none" xmlns="http://www.w3.org/2000/svg">
<path fill-rule="evenodd" clip-rule="evenodd" d="M8.0001 0C5.78051 0 3.98184 1.79865 3.98184 4.01826V4.8187H1.43728C1.17359 4.8187 0.954186 5.02305 0.936298 5.28673L0.00118734 18.786C-0.0185884 19.0761 0.211186 19.3228 0.502168 19.3228H15.4978C15.7888 19.3228 16.0186 19.0761 15.9988 18.786L15.0637 5.28673C15.0449 5.02304 14.8264 4.8187 14.5627 4.8187H12.0172V4.01826C12.0172 1.79867 10.2187 0 8.0001 0ZM10.0087 4.81863V4.01819C10.0087 2.90885 9.10941 2.00954 8.0001 2.00954C6.89078 2.00954 5.99051 2.90887 5.99051 4.01819V4.81863H10.0087Z" fill="#F5F5F5"/>
</svg>
